<svg xmlns="http://www.w3.org/2000/svg" width="587.22" height="632.94" viewBox="0 0 587.22 632.94"><defs><style>.a{opacity:0.5;}.b,.e{fill:none;}.b{stroke:#fff;stroke-width:11px;}.c{fill:#fff;}.d{stroke:none;}</style></defs><g class="a" transform="matrix(0.629, 0.777, -0.777, 0.629, 215.297, 15.471)"><g transform="translate(0 0)"><g class="b"><rect class="d" width="566.408" height="257.127"/><rect class="e" x="-5.5" y="-5.5" width="577.408" height="268.127"/></g></g><g transform="translate(14.995 39.985)"><g class="b" transform="translate(0)"><rect class="d" width="536.467" height="199.926"/><rect class="e" x="-5.5" y="-5.5" width="547.467" height="210.926"/></g></g><g transform="translate(36.653 86.635)"><g transform="translate(0 0)"><path class="c" d="M113.292,33.672H75.411V0H37.881V33.672H0V72.956H37.881v33.672h37.53V72.956h37.881Z"/></g></g><g transform="translate(412.179 148.279)"><g transform="translate(0 0)"><path class="c" d="M43.317,43.317H0V0H43.317ZM3.332,39.985H39.985V3.332H3.332Z"/></g><g transform="translate(8.33 8.33)"><circle class="c" cx="13.328" cy="13.328" r="13.328"/></g><g transform="translate(55.98 0)"><path class="c" d="M43.317,43.317H0V0H43.317ZM3.332,39.985H39.985V3.332H3.332Z" transform="translate(0 0)"/></g><g transform="translate(64.477 8.182)"><ellipse class="c" cx="13.342" cy="13.342" rx="13.342" ry="13.342"/></g></g><g transform="translate(201.592 133.284)"><path class="c" d="M147.852,63.31H15.421A15.437,15.437,0,0,1,0,47.892V15.418A15.437,15.437,0,0,1,15.421,0h132.43a15.437,15.437,0,0,1,15.422,15.418V47.892A15.437,15.437,0,0,1,147.852,63.31ZM15.421,3.332A12.1,12.1,0,0,0,3.332,15.418V47.892A12.1,12.1,0,0,0,15.421,59.978h132.43a12.1,12.1,0,0,0,12.089-12.086V15.418A12.1,12.1,0,0,0,147.852,3.332Z" transform="translate(0 0)"/></g><g transform="translate(223.168 163.737)"><rect class="c" width="36.386" height="9.703" rx="1.5"/></g><g transform="translate(305.643 163.737)"><rect class="c" width="37.599" height="9.703" rx="1.5"/></g><g transform="translate(202.549 46.089)"><rect class="c" width="154.034" height="16.98"/></g><g transform="translate(202.549 72.772)"><rect class="c" width="154.034" height="16.98"/></g><g transform="translate(202.549 100.668)"><rect class="c" width="154.034" height="15.767"/></g><g transform="translate(202.549 217.103)"><rect class="c" width="154.034" height="15.767"/></g><g transform="translate(416.024 69.461)"><g transform="translate(0 0)"><path class="c" d="M11.193,9.52a6.4,6.4,0,0,1-4.209,1.229h-3.5v6.038H0V0H7.214a5.83,5.83,0,0,1,3.972,1.3,5.064,5.064,0,0,1,1.479,4.022Q12.665,8.292,11.193,9.52ZM8.517,3.472a2.823,2.823,0,0,0-1.866-.556H3.489V7.857H6.651a2.682,2.682,0,0,0,1.866-.6,2.468,2.468,0,0,0,.666-1.913A2.324,2.324,0,0,0,8.517,3.472Z"/></g><g transform="translate(13.938 4.372)"><path class="c" d="M1.77,14.795l.41.023a5.444,5.444,0,0,0,.913-.033,1.672,1.672,0,0,0,.73-.263,1.765,1.765,0,0,0,.53-.81,1.994,1.994,0,0,0,.21-.75L0,0H3.609L6.321,9.157,8.883,0h3.449L8.077,12.209a16.915,16.915,0,0,1-1.953,4.382,3.718,3.718,0,0,1-2.872.846c-.286,0-.523,0-.693,0s-.44-.02-.789-.043Z"/></g><g transform="translate(27.427 4.075)"><path class="c" d="M6.9.287a3.885,3.885,0,0,1,1.91,1.8V.3h3.169V12.072a6.585,6.585,0,0,1-.81,3.622q-1.389,2.1-5.332,2.1a7.256,7.256,0,0,1-3.882-.933A3.445,3.445,0,0,1,.3,14.068H3.826a1.485,1.485,0,0,0,.446.82,2.757,2.757,0,0,0,1.763.443,2.374,2.374,0,0,0,2.349-1.173,5.96,5.96,0,0,0,.387-2.529v-.8a4.025,4.025,0,0,1-1,1.2,4.027,4.027,0,0,1-2.519.74,4.753,4.753,0,0,1-3.819-1.683A6.782,6.782,0,0,1,0,6.538,7.688,7.688,0,0,1,1.376,1.886,4.548,4.548,0,0,1,5.278,0,4.257,4.257,0,0,1,6.9.287Zm1.1,8.9a3.967,3.967,0,0,0,.786-2.739A4.223,4.223,0,0,0,8.05,3.759a2.435,2.435,0,0,0-1.993-.923A2.345,2.345,0,0,0,3.712,4.442a5.726,5.726,0,0,0-.34,2.109,4.791,4.791,0,0,0,.363,1.923,2.36,2.36,0,0,0,2.359,1.573A2.481,2.481,0,0,0,8.007,9.187Z" transform="translate(0 0)"/></g><g transform="translate(41.591 4.075)"><path class="c" d="M5.761,5.162a5.189,5.189,0,0,0,1.3-.287.975.975,0,0,0,.7-.923A1.094,1.094,0,0,0,7.22,2.9a3.393,3.393,0,0,0-1.576-.29,2.077,2.077,0,0,0-1.653.57,2.337,2.337,0,0,0-.46,1.139H.4a4.762,4.762,0,0,1,.913-2.676Q2.607,0,5.754,0A7.893,7.893,0,0,1,9.39.81a3.1,3.1,0,0,1,1.589,3.052V9.557c0,.4.01.873.027,1.436a1.758,1.758,0,0,0,.189.863,1.191,1.191,0,0,0,.479.376v.48H8.143a3.642,3.642,0,0,1-.2-.706c-.04-.22-.07-.47-.093-.753A6.684,6.684,0,0,1,6.291,12.5a4.742,4.742,0,0,1-2.382.6,4.116,4.116,0,0,1-2.8-.963A3.419,3.419,0,0,1,0,9.41,3.541,3.541,0,0,1,1.779,6.094a7.95,7.95,0,0,1,2.866-.8ZM7.743,6.674a3.232,3.232,0,0,1-.626.313,5.528,5.528,0,0,1-.874.223L5.5,7.347a4.9,4.9,0,0,0-1.49.443A1.486,1.486,0,0,0,3.249,9.17a1.445,1.445,0,0,0,.467,1.2,1.8,1.8,0,0,0,1.139.367,3.383,3.383,0,0,0,1.959-.613,2.6,2.6,0,0,0,.93-2.242Z" transform="translate(0 0)"/></g><g transform="translate(55.35 4.098)"><path class="c" d="M15.547.32A3.641,3.641,0,0,1,17.7,3.029a10.954,10.954,0,0,1,.117,1.836l-.024,7.824H14.465v-7.9a2.584,2.584,0,0,0-.23-1.163,1.62,1.62,0,0,0-1.593-.866,1.875,1.875,0,0,0-1.859,1.116,3.543,3.543,0,0,0-.26,1.426v7.391H7.257V5.3a4.171,4.171,0,0,0-.23-1.606,1.586,1.586,0,0,0-1.606-.9,1.911,1.911,0,0,0-1.869.9,3.486,3.486,0,0,0-.26,1.526v7.471H0V.3H3.156V2.106A5.143,5.143,0,0,1,4.3.73,3.881,3.881,0,0,1,6.741,0a3.888,3.888,0,0,1,2.3.626,3.652,3.652,0,0,1,1.069,1.493A4.15,4.15,0,0,1,11.7.513,4.809,4.809,0,0,1,13.928,0,4.324,4.324,0,0,1,15.547.32Z" transform="translate(0 0)"/></g><g transform="translate(75.166 4.042)"><path class="c" d="M9.071.583a5.032,5.032,0,0,1,2.146,1.836,6.1,6.1,0,0,1,.989,2.566,15.8,15.8,0,0,1,.107,2.462H3.272a2.972,2.972,0,0,0,1.3,2.622,3.311,3.311,0,0,0,1.789.467,2.741,2.741,0,0,0,1.8-.57,2.724,2.724,0,0,0,.67-.856h3.316a4.084,4.084,0,0,1-1.207,2.246,6.031,6.031,0,0,1-4.671,1.809A6.779,6.779,0,0,1,1.9,11.639C.637,10.619,0,8.963,0,6.671A6.721,6.721,0,0,1,1.713,1.723,5.973,5.973,0,0,1,6.151,0,7.039,7.039,0,0,1,9.071.583Zm-4.855,2.8a3.353,3.353,0,0,0-.863,1.923H8.943a2.719,2.719,0,0,0-.866-1.963,2.84,2.84,0,0,0-1.923-.67A2.574,2.574,0,0,0,4.215,3.386Z" transform="translate(0 0)"/></g></g></g></svg>