<svg xmlns="http://www.w3.org/2000/svg" xmlns:xlink="http://www.w3.org/1999/xlink" width="565.83" height="771.349" viewBox="0 0 565.83 771.349"><defs><style>.a,.e,.f{fill:none;}.b{opacity:0.5;}.c{clip-path:url(#a);}.d,.h,.i,.j{fill:#fff;}.e,.f{stroke:#fff;}.e,.f,.h,.i,.j{stroke-miterlimit:10;}.e{stroke-width:7px;}.f,.i,.j{stroke-width:2px;}.g{opacity:0.17;}.h{stroke:#000;opacity:0.35;}.i,.j{stroke:#fb8449;}.j{fill-rule:evenodd;}</style><clipPath id="a"><path class="a" d="M35.328,0H290.116a35.327,35.327,0,0,1,35.327,35.327V637.8a35.327,35.327,0,0,1-35.327,35.327H35.328A35.328,35.328,0,0,1,0,637.8V35.328A35.328,35.328,0,0,1,35.328,0Z"/></clipPath></defs><g class="b" transform="translate(239.307 4.486) rotate(20)"><g transform="translate(0 0)"><path class="d" d="M172.786,22.287H20.969A15.3,15.3,0,0,1,6.155,10.8,20.7,20.7,0,0,0,2.28,2.809L0,0H193.754l-2.279,2.809A20.7,20.7,0,0,0,187.6,10.8,15.3,15.3,0,0,1,172.786,22.287Z" transform="translate(74.475 11.609)"/><path class="e" d="M35.328,0H290.116a35.327,35.327,0,0,1,35.327,35.327V637.8a35.327,35.327,0,0,1-35.327,35.327H35.328A35.328,35.328,0,0,1,0,637.8V35.328A35.328,35.328,0,0,1,35.328,0Z" transform="translate(8.631 6.72)"/><rect class="e" width="342.705" height="686.57" rx="43.214"/><g transform="translate(97.179 659.233)"><line class="f" x2="148.347"/></g></g><g class="g" transform="translate(16.569 15.404)"><rect class="f" width="308.51" height="654.796" transform="translate(0 0)"/><line class="f" x2="308.51" transform="translate(0 633.674)"/><line class="f" x2="308.51" transform="translate(0 612.551)"/><line class="f" x2="308.51" transform="translate(0 591.429)"/><line class="f" x2="308.51" transform="translate(0 570.306)"/><line class="f" x2="308.51" transform="translate(0 549.184)"/><line class="f" x2="308.51" transform="translate(0 528.062)"/><line class="f" x2="308.51" transform="translate(0 506.939)"/><line class="f" x2="308.51" transform="translate(0 485.817)"/><line class="f" x2="308.51" transform="translate(0 464.694)"/><line class="f" x2="308.51" transform="translate(0 443.572)"/><line class="f" x2="308.51" transform="translate(0 422.449)"/><line class="f" x2="308.51" transform="translate(0 401.327)"/><line class="f" x2="308.51" transform="translate(0 380.204)"/><line class="f" x2="308.51" transform="translate(0 359.082)"/><line class="f" x2="308.51" transform="translate(0 337.959)"/><line class="f" x2="308.51" transform="translate(0 316.837)"/><line class="f" x2="308.51" transform="translate(0 295.714)"/><line class="f" x2="308.51" transform="translate(0 274.592)"/><line class="f" x2="308.51" transform="translate(0 253.469)"/><line class="f" x2="308.51" transform="translate(0 232.347)"/><line class="f" x2="308.51" transform="translate(0 211.225)"/><line class="f" x2="308.51" transform="translate(0 190.102)"/><line class="f" x2="308.51" transform="translate(0 168.98)"/><line class="f" x2="308.51" transform="translate(0 147.857)"/><line class="f" x2="308.51" transform="translate(0 126.735)"/><line class="f" x2="308.51" transform="translate(0 105.612)"/><line class="f" x2="308.51" transform="translate(0 84.49)"/><line class="f" x2="308.51" transform="translate(0 63.367)"/><line class="f" x2="308.51" transform="translate(0 42.245)"/><line class="f" x2="308.51" transform="translate(0 21.122)"/><line class="f" y2="654.796" transform="translate(289.228 0)"/><line class="f" y2="654.796" transform="translate(269.946 0)"/><line class="f" y2="654.796" transform="translate(250.664 0)"/><line class="f" y2="654.796" transform="translate(231.382 0)"/><line class="f" y2="654.796" transform="translate(212.1 0)"/><line class="f" y2="654.796" transform="translate(192.819 0)"/><line class="f" y2="654.796" transform="translate(173.537 0)"/><line class="f" y2="654.796" transform="translate(154.255 0)"/><line class="f" y2="654.796" transform="translate(134.973 0)"/><line class="f" y2="654.796" transform="translate(115.691 0)"/><line class="f" y2="654.796" transform="translate(96.409 0)"/><line class="f" y2="654.796" transform="translate(77.127 0)"/><line class="f" y2="654.796" transform="translate(57.846 0)"/><line class="f" y2="654.796" transform="translate(38.564 0)"/><line class="f" y2="654.796" transform="translate(19.282 0)"/></g><rect class="h" width="269.474" height="33.999" rx="13.5" transform="translate(36.087 78.995)"/><rect class="h" width="273.252" height="98.219" rx="13.5" transform="translate(34.827 120.549)"/><rect class="h" width="69.257" height="69.257" rx="27.5" transform="translate(54.975 135.66)"/><rect class="h" width="135.996" height="13.851" transform="translate(150.676 154.548)"/><rect class="h" width="78.072" height="11.333" transform="translate(150.676 179.732)"/><rect class="h" width="201.476" height="201.476" transform="translate(36.087 247.731)"/><circle class="i" cx="2.518" cy="2.518" r="2.518" transform="translate(32.939 244.583)"/><circle class="i" cx="2.518" cy="2.518" r="2.518" transform="translate(235.674 244.583)"/><circle class="i" cx="2.518" cy="2.518" r="2.518" transform="translate(32.939 446.058)"/><circle class="i" cx="2.518" cy="2.518" r="2.518" transform="translate(235.674 447.318)"/><path class="j" d="M2.862,25.028C1.91,16.7.958,8.374,0,0L21.744,12.731l-.013.044c-.091,0-.181.005-.272,0L9.04,12.648a.977.977,0,0,0-1.118.724Q5.464,19.1,3.008,24.823l-.094.218Z" transform="translate(237.862 449.622)"/></g></svg>